<?xml version="1.0" encoding="utf-8"?>
<svg version="1.1" xmlns:xlink="http://www.w3.org/1999/xlink" width="420px" height="420px" xmlns="http://www.w3.org/2000/svg">
  <defs>
    <linearGradient gradientUnits="userSpaceOnUse" x1="578.22754491018" y1="309" x2="302" y2="309" id="LinearGradient55">
      <stop id="Stop56" stop-color="#c280ff" offset="0" />
      <stop id="Stop57" stop-color="#8400ff" offset="1" />
    </linearGradient>
  </defs>
  <g transform="matrix(1 0 0 1 -302 -99 )">
    <path d="M 512 198  C 574.16 198  623 246.84  623 309  C 623 371.16  574.16 420  512 420  C 449.84 420  401 371.16  401 309  C 401 246.84  449.84 198  512 198  Z " fill-rule="nonzero" fill="#ffffff" stroke="none" fill-opacity="0" />
    <path d="M 512 149  C 601.6 149  672 219.4  672 309  C 672 398.6  601.6 469  512 469  C 422.4 469  352 398.6  352 309  C 352 219.4  422.4 149  512 149  Z " stroke-width="100" stroke="url(#LinearGradient55)" fill="none" />
  </g>
</svg>